<?xml version="1.0" standalone="no"?>
<!DOCTYPE svg PUBLIC "-//W3C//DTD SVG 20010904//EN"
 "http://www.w3.org/TR/2001/REC-SVG-20010904/DTD/svg10.dtd">
<svg version="1.0" xmlns="http://www.w3.org/2000/svg"
 width="500.000000pt" height="311.000000pt" viewBox="0 0 500.000000 311.000000"
 preserveAspectRatio="xMidYMid meet">
<metadata>
Created by potrace 1.16, written by Peter Selinger 2001-2019
</metadata>
<g transform="translate(0.000000,311.000000) scale(0.100000,-0.100000)"
fill="#000000" stroke="none">
<path d="M2266 2285 c-299 -49 -574 -177 -791 -370 -44 -39 -47 -45 -27 -45
14 0 47 20 80 49 288 249 715 388 1085 353 331 -32 628 -154 858 -353 34 -29
66 -49 80 -49 21 0 17 6 -30 48 -198 174 -443 295 -710 353 -128 27 -417 35
-545 14z"/>
<path d="M1962 1792 c-9 -6 -6 -12 13 -20 l25 -12 0 -222 0 -223 53 2 c67 2
66 1 37 16 l-25 13 -6 224 c-3 124 -6 226 -7 228 -5 6 -78 1 -90 -6z"/>
<path d="M3413 1793 c-20 -7 -15 -23 6 -23 24 0 31 -19 31 -81 l0 -49 -47 0
c-69 0 -127 -32 -152 -84 -39 -80 -22 -183 37 -225 36 -25 107 -28 140 -5 14
10 22 11 20 4 -2 -8 15 -13 50 -15 28 -1 52 0 52 3 0 2 -11 13 -25 24 l-25 19
0 220 0 219 -37 -1 c-21 0 -44 -3 -50 -6z m29 -199 c5 -3 8 -51 8 -108 0 -112
-7 -127 -62 -141 -59 -15 -98 39 -98 137 0 68 16 102 54 118 19 9 81 4 98 -6z"/>
<path d="M978 1753 c-24 -6 -22 -16 5 -28 22 -10 22 -13 25 -208 l2 -198 116
3 116 3 15 38 c20 50 10 57 -26 18 -27 -29 -34 -31 -95 -31 l-66 0 0 189 c0
104 -3 196 -6 205 -6 16 -46 20 -86 9z"/>
<path d="M2648 1753 c-22 -5 -24 -23 -3 -23 31 0 36 -38 33 -228 l-3 -188 53
0 c52 0 68 10 33 21 -27 8 -31 43 -31 246 l0 179 -32 -1 c-18 -1 -41 -3 -50
-6z"/>
<path d="M1562 1687 c-12 -13 -22 -33 -22 -45 0 -17 -6 -22 -25 -22 -16 0 -25
-6 -25 -15 0 -9 9 -15 25 -15 l25 0 0 -121 c0 -66 5 -129 10 -140 12 -21 70
-26 114 -9 41 15 32 33 -13 25 -54 -9 -61 8 -61 138 l0 104 50 7 c34 5 50 11
50 21 0 11 -13 15 -51 15 l-52 0 7 40 c7 46 -1 50 -32 17z"/>
<path d="M1793 1686 c-13 -13 -23 -33 -23 -45 0 -14 -6 -21 -20 -21 -11 0 -20
-7 -20 -15 0 -8 9 -15 20 -15 19 0 20 -7 20 -115 0 -147 8 -165 69 -165 50 1
107 24 81 34 -8 3 -31 4 -50 3 -33 -2 -35 0 -42 38 -4 22 -7 76 -7 121 l-1 80
52 10 c70 12 76 34 9 34 l-51 0 0 40 c0 46 -6 49 -37 16z"/>
<path d="M1340 1633 c-34 -6 -50 -23 -22 -23 36 0 44 -32 40 -169 l-3 -127 53
0 c28 0 52 4 52 8 0 4 -4 8 -9 8 -5 0 -17 7 -25 16 -13 12 -16 41 -16 155 0
155 5 145 -70 132z"/>
<path d="M2245 1626 c-62 -28 -95 -85 -95 -162 0 -101 50 -154 148 -154 45 0
66 5 86 21 35 28 20 45 -20 24 -79 -41 -140 -4 -158 97 l-7 37 103 3 103 3 -1
43 c-2 78 -83 123 -159 88z"/>
<path d="M2855 1633 c-33 -8 -38 -20 -11 -27 l26 -6 0 -143 0 -142 50 -1 c51
0 66 10 30 21 -18 6 -20 15 -20 121 l0 114 44 22 c54 26 92 19 107 -20 6 -15
9 -78 7 -143 l-3 -115 47 0 c51 1 60 9 29 26 -17 9 -20 24 -23 136 -3 118 -4
127 -27 145 -29 24 -100 25 -143 3 -28 -15 -32 -15 -40 0 -9 16 -33 19 -73 9z"/>
<path d="M3610 1633 c-34 -6 -50 -23 -22 -23 36 0 44 -32 40 -169 l-3 -127 53
0 c28 0 52 4 52 8 0 4 -4 8 -9 8 -5 0 -17 7 -25 16 -13 12 -16 41 -16 155 0
155 5 145 -70 132z"/>
<path d="M3837 1626 c-20 -8 -44 -19 -53 -26 -25 -22 0 -32 39 -15 75 31 127
10 127 -51 0 -29 -3 -31 -60 -42 -96 -20 -143 -76 -118 -141 13 -34 25 -41 79
-41 32 0 55 6 73 21 24 19 26 19 26 2 0 -15 8 -18 45 -18 51 0 53 3 25 28 -18
15 -20 29 -20 126 0 60 -3 117 -6 126 -9 21 -57 45 -91 45 -15 -1 -45 -7 -66
-14z"/>
<path d="M1479 1192 c146 -128 359 -250 535 -307 177 -57 265 -69 486 -69 174
0 220 3 306 22 274 59 516 179 715 354 47 42 51 48 30 48 -14 0 -46 -20 -80
-49 -387 -335 -950 -444 -1444 -280 -175 58 -366 166 -498 280 -34 29 -66 49
-80 49 -21 0 -17 -6 30 -48z"/>
</g>
</svg>
